<?xml version="1.0" standalone="no"?>
<!DOCTYPE svg PUBLIC "-//W3C//DTD SVG 20010904//EN"
 "http://www.w3.org/TR/2001/REC-SVG-20010904/DTD/svg10.dtd">
<svg version="1.0" xmlns="http://www.w3.org/2000/svg"
 width="700.000000pt" height="700.000000pt" viewBox="0 0 700.000000 700.000000"
 preserveAspectRatio="xMidYMid meet">
<metadata>
Created by potrace 1.14, written by Peter Selinger 2001-2017
</metadata>
<g transform="translate(0.000000,700.000000) scale(0.100000,-0.100000)"
fill="#000000" stroke="none">
<path d="M1622 6113 c-393 -59 -689 -365 -739 -763 -10 -81 -9 -3644 1 -3720
26 -195 123 -380 272 -519 125 -118 270 -188 464 -227 19 -4 857 -8 1862 -8
2035 -1 1889 -6 2036 66 83 41 187 141 237 228 69 120 76 172 78 537 1 177 5
324 9 328 3 3 21 9 40 11 102 15 193 94 228 199 19 55 22 1255 4 1327 -29 113
-128 203 -237 215 l-43 5 -1 327 c0 306 -2 331 -23 408 -27 100 -76 184 -150
259 -54 55 -157 124 -185 124 -8 0 -16 4 -19 9 -6 10 -138 38 -188 40 -17 1
-18 23 -18 324 0 288 -2 332 -19 400 -30 117 -75 193 -165 281 -76 74 -190
133 -296 152 -75 13 -3058 11 -3148 -3z m3044 -863 l0 -290 -51 0 c-574 -6
-2918 2 -2943 9 -76 22 -145 80 -185 154 -32 61 -31 194 1 255 38 71 108 130
182 153 14 4 694 8 1511 8 l1485 1 0 -290z m-3081 -857 c74 -16 225 -17 1872
-17 l1793 -1 0 -292 0 -293 -335 0 c-345 0 -407 -5 -533 -45 -23 -8 -153 -72
-201 -99 -46 -27 -163 -139 -212 -205 -79 -104 -126 -209 -166 -376 -2 -11 -6
-67 -8 -125 -7 -209 57 -400 190 -568 127 -161 309 -270 530 -318 23 -5 392
-12 698 -14 l37 0 0 -290 0 -290 -1792 2 -1793 3 -43 23 c-80 43 -139 118
-157 201 -5 23 -10 2528 -5 2720 0 9 7 11 23 7 12 -3 58 -14 102 -23z m3956
-1231 c2 -180 -3 -527 -7 -532 -3 -3 -213 -5 -467 -5 l-462 1 -55 25 c-69 32
-115 79 -148 148 -74 161 23 361 195 400 21 4 242 9 491 9 l452 1 1 -47z"/>
</g>
</svg>
