<?xml version="1.0" standalone="no"?>
<!DOCTYPE svg PUBLIC "-//W3C//DTD SVG 20010904//EN"
 "http://www.w3.org/TR/2001/REC-SVG-20010904/DTD/svg10.dtd">
<svg version="1.0" xmlns="http://www.w3.org/2000/svg"
 width="700.000000pt" height="700.000000pt" viewBox="0 0 700.000000 700.000000"
 preserveAspectRatio="xMidYMid meet">
<metadata>
Created by potrace 1.14, written by Peter Selinger 2001-2017
</metadata>
<g transform="translate(0.000000,700.000000) scale(0.100000,-0.100000)"
fill="#000000" stroke="none">
<path d="M1320 6172 c-56 -6 -155 -36 -208 -65 -74 -39 -189 -157 -225 -230
-65 -133 -60 44 -61 -2382 l0 -2200 22 -70 c24 -81 72 -165 128 -225 70 -76
195 -146 296 -166 18 -4 1016 -7 2217 -8 1693 -1 2198 2 2245 11 201 41 378
212 427 413 9 41 13 166 15 480 1 234 2 428 3 431 0 3 23 20 50 37 100 65 189
185 227 307 17 57 18 109 18 965 0 498 -3 928 -6 955 -17 138 -117 293 -240
372 -24 15 -45 29 -48 31 -2 2 -5 198 -5 435 -1 322 -5 446 -14 487 -48 196
-215 364 -411 411 -45 10 -464 13 -2230 13 -1196 1 -2186 0 -2200 -2z m4297
-555 c3 -4 4 -157 3 -539 l0 -188 -902 0 c-924 0 -972 -2 -1045 -38 -69 -34
-94 -50 -138 -86 -93 -74 -163 -180 -192 -286 -15 -54 -17 -188 -17 -995 0
-709 3 -912 13 -955 45 -189 201 -348 396 -406 56 -16 128 -18 970 -18 l910
-1 3 -363 2 -362 -2120 0 -2120 0 0 28 c0 115 0 3771 0 3964 l0 248 168 2
c243 4 4064 -1 4069 -5z m371 -2120 l2 -907 -1090 0 -1090 0 0 908 0 907 1088
0 1087 -1 3 -907z"/>
<path d="M4630 3946 c-163 -34 -304 -168 -346 -326 -87 -332 204 -635 542
-564 205 42 354 232 354 448 0 126 -41 226 -130 314 -114 115 -264 160 -420
128z"/>
</g>
</svg>
